<svg width="24" height="22" viewBox="0 0 24 22" fill="none" xmlns="http://www.w3.org/2000/svg">
<path d="M5.42878 1.76117C8.08862 3.75801 10.9496 7.80677 12 9.97957C13.0505 7.80693 15.9113 3.75797 18.5712 1.76117C20.4904 0.320333 23.6 -0.794507 23.6 2.75297C23.6 3.46145 23.1938 8.70457 22.9555 9.55577C22.1274 12.5151 19.1098 13.2699 16.4255 12.8131C21.1175 13.6117 22.3111 16.2568 19.7334 18.9019C14.8378 23.9255 12.697 17.6415 12.1482 16.0313C12.0477 15.7361 12.0006 15.598 11.9999 15.7154C11.9992 15.598 11.9522 15.7361 11.8516 16.0313C11.303 17.6415 9.16228 23.9257 4.2664 18.9019C1.68864 16.2568 2.8822 13.6115 7.57428 12.8131C4.88996 13.2699 1.87228 12.5151 1.04428 9.55577C0.806033 8.70449 0.399841 3.46137 0.399841 2.75297C0.399841 -0.794507 3.50952 0.320333 5.42864 1.76117H5.42878Z" fill="white"/>
</svg>
