<svg width="241" height="241" viewBox="0 0 241 241" fill="none" xmlns="http://www.w3.org/2000/svg">
<path fill-rule="evenodd" clip-rule="evenodd" d="M21.3583 107.031C82.7372 80.3752 123.598 62.663 144.116 54.07C202.514 29.6938 214.789 25.4849 222.681 25.3096C224.435 25.3096 228.293 25.6603 230.923 27.7647C233.028 29.5184 233.554 31.7982 233.905 33.5519C234.255 35.3056 234.606 38.9883 234.255 41.7942C231.099 75.1141 217.42 155.959 210.405 193.137C207.424 208.92 201.637 214.181 196.025 214.707C183.749 215.759 174.455 206.64 162.705 198.924C144.116 186.824 133.769 179.283 115.706 167.358C94.8376 153.679 108.341 146.138 120.266 133.862C123.423 130.706 177.261 81.6028 178.313 77.2186C178.488 76.6925 178.488 74.588 177.261 73.5358C176.033 72.4836 174.279 72.8343 172.876 73.1851C170.947 73.5358 141.486 93.1771 84.1401 131.933C75.7225 137.721 68.1816 140.526 61.3423 140.351C53.8014 140.176 39.4212 136.142 28.5484 132.635C15.3958 128.426 4.87372 126.146 5.75056 118.781C6.27666 114.923 11.5377 111.065 21.3583 107.031Z" fill="white"/>
</svg>
