<svg width="24" height="24" viewBox="0 0 24 24" fill="none" xmlns="http://www.w3.org/2000/svg">
<path fill-rule="evenodd" clip-rule="evenodd" d="M2.13494 10.6987C8.27026 8.03417 12.3546 6.26369 14.4056 5.40475C20.2429 2.96815 21.47 2.54744 22.2588 2.52991C22.4341 2.52991 22.8198 2.56497 23.0827 2.77532C23.2931 2.95062 23.3456 3.1785 23.3807 3.3538C23.4158 3.52909 23.4508 3.89721 23.4158 4.17768C23.1002 7.50829 21.7329 15.5894 21.0318 19.3056C20.7337 20.8833 20.1553 21.4092 19.5943 21.4618C18.3673 21.567 17.4382 20.6554 16.2637 19.8841C14.4056 18.6746 13.3714 17.9208 11.5658 16.7288C9.4798 15.3615 10.8296 14.6077 12.0216 13.3807C12.3371 13.0651 17.7187 8.15688 17.8238 7.71864C17.8414 7.66606 17.8414 7.4557 17.7187 7.35052C17.596 7.24535 17.4207 7.28041 17.2804 7.31546C17.0876 7.35052 14.1427 9.31383 8.4105 13.1879C7.56908 13.7663 6.81532 14.0468 6.13166 14.0293C5.3779 14.0117 3.94048 13.6086 2.85365 13.258C1.53893 12.8373 0.487162 12.6094 0.57481 11.8731C0.627398 11.4875 1.15328 11.1018 2.13494 10.6987Z" fill="white"/>
</svg>
